<svg xmlns="http://www.w3.org/2000/svg" viewBox="0 0 727 176" width="727" height="176">
<g fill="#ffffff" transform="translate(22.00,126.00) scale(0.05900,-0.05900)">
<path transform="translate(0,0)" d="M843 521 821 485 1141 1368Q1148 1388 1154.5 1394.0Q1161 1400 1172 1400H1508Q1513 1400 1515.0 1398.0Q1517 1396 1517 1394Q1517 1391 1514.5 1389.0Q1512 1387 1506 1386L1421 1373Q1404 1370 1395.5 1356.5Q1387 1343 1389 1322L1478 72Q1480 47 1486.0 38.5Q1492 30 1513 26L1593 14Q1599 13 1601.5 11.5Q1604 10 1604 6Q1604 4 1602.0 2.0Q1600 0 1595 0H1077Q1073 0 1070.5 2.0Q1068 4 1068 6Q1068 10 1070.5 11.5Q1073 13 1080 14L1159 26Q1181 30 1189.5 39.5Q1198 49 1196 72L1112 1263L1128 1276L729 138Q724 122 719.0 117.5Q714 113 710 113Q707 113 704.0 115.0Q701 117 698.0 122.5Q695 128 692 138L253 1257L267 1284L186 145Q183 104 212.0 73.5Q241 43 290 30L373 14Q378 13 380.0 11.5Q382 10 382 6Q382 4 380.5 2.0Q379 0 375 0H-3Q-8 0 -10.0 2.0Q-12 4 -12 6Q-12 10 -8.5 11.5Q-5 13 -1 14L58 29Q103 42 133.0 72.0Q163 102 166 148L244 1242Q250 1303 242.5 1335.5Q235 1368 209 1372L136 1383Q125 1385 120.0 1386.5Q115 1388 115 1392Q115 1400 130 1400H474Q484 1400 490.5 1394.5Q497 1389 503 1374Z"/>
<path transform="translate(1625,0)" d="M679 115V120V1373Q679 1379 676.0 1382.5Q673 1386 666 1386H601Q596 1386 594.0 1388.0Q592 1390 592 1393Q592 1397 594.5 1398.5Q597 1400 600 1401L887 1481Q896 1483 899.5 1483.5Q903 1484 907 1484Q912 1484 915.0 1481.0Q918 1478 918 1473V55Q918 42 923.5 34.0Q929 26 942 24L997 14Q1003 14 1005.0 11.5Q1007 9 1007 6Q1007 4 1005.0 2.0Q1003 0 999 0H705Q693 0 686.0 7.0Q679 14 679 29ZM45 413Q45 563 101.0 671.5Q157 780 251.5 839.0Q346 898 461 898Q560 898 623.5 859.5Q687 821 725 754L707 745Q679 801 631.0 833.5Q583 866 517 866Q453 866 401.0 824.0Q349 782 318.0 687.5Q287 593 287 435Q287 296 313.5 207.0Q340 118 386.5 75.0Q433 32 493 32Q543 32 595.0 60.0Q647 88 695 152L706 140Q634 53 566.0 16.5Q498 -20 414 -20Q306 -20 222.5 32.5Q139 85 92.0 182.0Q45 279 45 413Z"/>
</g>
<g fill="#d9b66a" transform="translate(177.82,126.00) scale(0.05900,-0.05900)">
<path transform="translate(0,0)" d="M608 -21Q515 -21 455.5 6.0Q396 33 363.0 59.5Q330 86 318 86Q311 86 295.5 69.5Q280 53 262.0 31.0Q244 9 228.5 -8.0Q213 -25 204 -25Q198 -25 192.0 -20.0Q186 -15 184 -8L108 423Q107 429 107.5 432.5Q108 436 110 437Q113 439 116.5 437.0Q120 435 122 431Q206 260 284.5 166.0Q363 72 438.0 35.0Q513 -2 586 -2Q695 -2 759.5 57.5Q824 117 824 232Q824 302 795.0 361.0Q766 420 696.5 470.5Q627 521 507 564Q349 620 255.0 687.5Q161 755 119.0 836.5Q77 918 77 1020Q77 1139 137.5 1229.0Q198 1319 303.0 1369.5Q408 1420 543 1420Q627 1420 682.0 1399.5Q737 1379 769.0 1358.5Q801 1338 816 1338Q829 1338 855.5 1359.5Q882 1381 907.0 1402.5Q932 1424 942 1424Q947 1424 951.0 1421.0Q955 1418 957 1411L1063 982Q1064 976 1063.5 973.0Q1063 970 1061 968Q1059 967 1055.5 968.5Q1052 970 1049 974Q959 1142 878.0 1234.5Q797 1327 719.0 1364.0Q641 1401 560 1401Q456 1401 388.5 1333.5Q321 1266 321 1148Q321 1075 348.5 1014.0Q376 953 442.5 902.5Q509 852 624 809Q789 750 883.5 683.0Q978 616 1018.0 538.0Q1058 460 1058 366Q1058 258 1004.5 170.5Q951 83 850.5 31.0Q750 -21 608 -21Z"/>
</g>
<g fill="#ffffff" transform="translate(244.61,126.00) scale(0.05900,-0.05900)">
<path transform="translate(560,0)" d="M955 1104 970 1091 703 104Q702 100 700.5 92.5Q699 85 699 74V10Q699 6 697.5 3.0Q696 0 691 0H428Q424 0 422.0 3.0Q420 6 420 10V74Q420 85 418.0 91.5Q416 98 414 108L105 1346Q102 1361 97.0 1367.0Q92 1373 81 1376L19 1390Q16 1391 14.5 1392.0Q13 1393 13 1395Q13 1397 15.0 1398.5Q17 1400 19 1400H502Q504 1400 506.0 1398.5Q508 1397 508 1395Q508 1390 502 1390L412 1376Q397 1373 392.5 1364.5Q388 1356 392 1342L694 103L671 60ZM1540 1394Q1540 1396 1542.0 1398.0Q1544 1400 1547 1400H1858Q1861 1400 1863.0 1398.0Q1865 1396 1865 1394Q1865 1391 1863.0 1389.5Q1861 1388 1856 1386L1823 1374Q1785 1360 1753.0 1324.0Q1721 1288 1708 1232L1443 104Q1442 100 1440.5 92.5Q1439 85 1439 74V10Q1439 6 1437.5 3.0Q1436 0 1431 0H1168Q1164 0 1162.0 3.0Q1160 6 1160 10V74Q1160 85 1158.5 92.0Q1157 99 1155 109L845 1345Q841 1359 836.5 1365.5Q832 1372 821 1374L761 1388Q757 1390 755.0 1391.5Q753 1393 753 1394Q753 1397 755.0 1398.5Q757 1400 759 1400H1240Q1243 1400 1244.5 1398.5Q1246 1397 1246 1394Q1246 1393 1243.5 1391.0Q1241 1389 1238 1388L1156 1374Q1141 1372 1136.5 1363.0Q1132 1354 1136 1340L1436 98L1413 60L1689 1235Q1701 1286 1678.0 1323.0Q1655 1360 1589 1377L1549 1386Q1544 1388 1542.0 1389.5Q1540 1391 1540 1394Z"/>
<path transform="translate(2400,0)" d="M840 517Q840 508 834.5 503.0Q829 498 817 498H198V515H585Q602 515 602 534Q602 712 554.5 797.0Q507 882 439 882Q383 882 342.0 843.5Q301 805 278.5 726.0Q256 647 256 525Q256 319 342.0 216.0Q428 113 568 113Q671 113 742.5 170.5Q814 228 822 326Q823 330 825.0 331.5Q827 333 828 333Q830 333 832.0 331.0Q834 329 834 324Q828 225 776.5 147.5Q725 70 640.5 25.0Q556 -20 451 -20Q327 -20 233.5 35.0Q140 90 87.0 189.5Q34 289 34 422Q34 564 87.5 671.0Q141 778 239.0 838.0Q337 898 468 898Q581 898 664.5 848.5Q748 799 794.0 713.0Q840 627 840 517Z"/>
<path transform="translate(3274,0)" d="M331 1473V71L119 -8Q115 -9 110.5 -10.5Q106 -12 102 -12Q98 -12 95.0 -9.5Q92 -7 92 -3V1373Q92 1379 89.0 1382.5Q86 1386 79 1386H14Q9 1386 7.0 1388.0Q5 1390 5 1393Q5 1397 7.5 1398.5Q10 1400 13 1401L300 1481Q309 1483 312.5 1483.5Q316 1484 320 1484Q325 1484 328.0 1481.0Q331 1478 331 1473ZM314 726 303 738Q375 825 443.0 861.5Q511 898 595 898Q703 898 786.5 845.5Q870 793 917.0 696.0Q964 599 964 464Q964 319 911.0 209.5Q858 100 764.0 40.0Q670 -20 548 -20Q449 -20 386.0 18.0Q323 56 284 124L302 133Q330 76 377.0 44.0Q424 12 489 12Q554 12 606.5 54.0Q659 96 689.5 190.5Q720 285 720 442Q720 584 694.0 674.0Q668 764 622.0 807.0Q576 850 516 850Q467 850 415.0 820.5Q363 791 314 726Z"/>
<path transform="translate(4283,0)" d="M410 1Q479 1 519.5 37.0Q560 73 560 131Q560 172 541.0 205.0Q522 238 476.5 266.0Q431 294 352 319Q234 358 167.0 404.5Q100 451 71.5 508.5Q43 566 43 639Q43 764 128.0 832.0Q213 900 355 900Q416 900 455.0 888.5Q494 877 515.0 865.0Q536 853 542 853Q552 853 577.0 865.0Q602 877 626.5 888.5Q651 900 659 900Q663 900 666.5 898.5Q670 897 671 889L724 601Q726 593 725.0 588.5Q724 584 721 582Q718 581 715.0 582.0Q712 583 710 587Q652 698 598.0 762.5Q544 827 487.5 854.5Q431 882 364 882Q289 882 247.5 844.5Q206 807 206 744Q206 702 225.5 668.0Q245 634 295.0 605.0Q345 576 437 550Q542 520 606.0 475.5Q670 431 698.0 374.0Q726 317 726 247Q726 165 686.5 105.5Q647 46 580.0 13.5Q513 -19 428 -19Q373 -19 333.0 -3.5Q293 12 268.5 27.5Q244 43 238 43Q233 43 211.5 29.0Q190 15 167.5 0.5Q145 -14 137 -14Q132 -14 127.0 -9.5Q122 -5 120 5L77 252Q76 263 77.0 267.5Q78 272 81 274Q84 276 86.0 274.5Q88 273 91 269Q171 123 251.0 62.0Q331 1 410 1Z"/>
<path transform="translate(5064,0)" d="M367 884V55Q367 42 372.5 34.0Q378 26 391 24L446 14Q452 14 454.0 11.5Q456 9 456 6Q456 4 454.0 2.0Q452 0 448 0H45Q42 0 39.5 2.0Q37 4 37 6Q37 9 39.0 10.5Q41 12 47 13L104 24Q117 26 122.5 34.0Q128 42 128 54V785Q128 791 125.0 794.5Q122 798 115 798H50Q45 798 43.0 800.0Q41 802 41 805Q41 808 43.5 809.5Q46 811 49 812L336 892Q345 895 348.5 895.5Q352 896 356 896Q361 896 364.0 892.5Q367 889 367 884ZM243 1022Q180 1022 140.5 1064.0Q101 1106 101 1166Q101 1227 140.5 1269.0Q180 1311 243 1311Q306 1311 346.5 1269.0Q387 1227 387 1166Q387 1106 346.5 1064.0Q306 1022 243 1022Z"/>
<path transform="translate(5543,0)" d="M106 845 19 863Q13 864 11.0 866.0Q9 868 9 871Q9 874 11.0 876.0Q13 878 16 878H104Q110 878 114.5 880.0Q119 882 123 887L316 1077Q321 1082 326.5 1085.0Q332 1088 337 1088Q343 1088 346.5 1084.0Q350 1080 350 1073V231Q350 150 380.5 110.5Q411 71 464 71Q483 71 500.0 76.5Q517 82 532.0 94.5Q547 107 558.5 127.0Q570 147 578 176Q580 182 584.5 182.0Q589 182 587 175Q571 109 542.5 66.5Q514 24 469.5 3.0Q425 -18 361 -18Q245 -18 182.0 37.0Q119 92 119 206V826Q119 835 116.5 839.5Q114 844 106 845ZM276 857 283 878H580Q585 878 587.5 876.5Q590 875 590 870Q590 865 583.5 861.0Q577 857 565 857Z"/>
<path transform="translate(6145,0)" d="M840 517Q840 508 834.5 503.0Q829 498 817 498H198V515H585Q602 515 602 534Q602 712 554.5 797.0Q507 882 439 882Q383 882 342.0 843.5Q301 805 278.5 726.0Q256 647 256 525Q256 319 342.0 216.0Q428 113 568 113Q671 113 742.5 170.5Q814 228 822 326Q823 330 825.0 331.5Q827 333 828 333Q830 333 832.0 331.0Q834 329 834 324Q828 225 776.5 147.5Q725 70 640.5 25.0Q556 -20 451 -20Q327 -20 233.5 35.0Q140 90 87.0 189.5Q34 289 34 422Q34 564 87.5 671.0Q141 778 239.0 838.0Q337 898 468 898Q581 898 664.5 848.5Q748 799 794.0 713.0Q840 627 840 517Z"/>
<path transform="translate(7019,0)" d="M410 1Q479 1 519.5 37.0Q560 73 560 131Q560 172 541.0 205.0Q522 238 476.5 266.0Q431 294 352 319Q234 358 167.0 404.5Q100 451 71.5 508.5Q43 566 43 639Q43 764 128.0 832.0Q213 900 355 900Q416 900 455.0 888.5Q494 877 515.0 865.0Q536 853 542 853Q552 853 577.0 865.0Q602 877 626.5 888.5Q651 900 659 900Q663 900 666.5 898.5Q670 897 671 889L724 601Q726 593 725.0 588.5Q724 584 721 582Q718 581 715.0 582.0Q712 583 710 587Q652 698 598.0 762.5Q544 827 487.5 854.5Q431 882 364 882Q289 882 247.5 844.5Q206 807 206 744Q206 702 225.5 668.0Q245 634 295.0 605.0Q345 576 437 550Q542 520 606.0 475.5Q670 431 698.0 374.0Q726 317 726 247Q726 165 686.5 105.5Q647 46 580.0 13.5Q513 -19 428 -19Q373 -19 333.0 -3.5Q293 12 268.5 27.5Q244 43 238 43Q233 43 211.5 29.0Q190 15 167.5 0.5Q145 -14 137 -14Q132 -14 127.0 -9.5Q122 -5 120 5L77 252Q76 263 77.0 267.5Q78 272 81 274Q84 276 86.0 274.5Q88 273 91 269Q171 123 251.0 62.0Q331 1 410 1Z"/>
</g>
<g fill="#d9b66a" transform="translate(24.00,160.00) scale(0.00879,-0.00879)">
<path transform="translate(0,0)" d="M601 0V560L49 1490H406L658 1026Q697 956 727.0 887.0Q757 818 789 722H722Q753 819 782.0 888.0Q811 957 848 1026L1092 1490H1448L905 560V0Z"/>
<path transform="translate(1497,0)" d="M789 -20Q592 -20 434.5 70.0Q277 160 185.5 331.0Q94 502 94 744Q94 987 185.5 1158.5Q277 1330 434.5 1420.0Q592 1510 789 1510Q987 1510 1144.0 1420.0Q1301 1330 1392.5 1158.5Q1484 987 1484 744Q1484 502 1392.5 331.0Q1301 160 1144.0 70.0Q987 -20 789 -20ZM789 251Q905 251 991.5 307.5Q1078 364 1126.0 474.5Q1174 585 1174 744Q1174 905 1126.0 1015.5Q1078 1126 991.5 1182.5Q905 1239 789 1239Q674 1239 587.0 1182.0Q500 1125 452.0 1014.5Q404 904 404 744Q404 585 452.0 475.0Q500 365 587.0 308.0Q674 251 789 251Z"/>
<path transform="translate(3075,0)" d="M750 -21Q565 -21 426.5 47.5Q288 116 211.5 238.0Q135 360 135 523V1490H440V548Q440 461 478.5 393.5Q517 326 586.5 287.5Q656 249 750 249Q843 249 912.5 287.5Q982 326 1020.5 393.5Q1059 461 1059 548V1490H1365V523Q1365 360 1288.0 238.0Q1211 116 1072.5 47.5Q934 -21 750 -21Z"/>
<path transform="translate(4574,0)" d="M135 0V1490H716Q886 1490 1005.0 1430.0Q1124 1370 1186.5 1261.0Q1249 1152 1249 1005Q1249 858 1185.5 751.5Q1122 645 1001.5 588.5Q881 532 709 532H315V779H660Q754 779 814.0 804.5Q874 830 904.0 880.5Q934 931 934 1005Q934 1081 904.0 1132.5Q874 1184 813.5 1211.0Q753 1238 659 1238H440V0ZM964 0 601 678H932L1302 0Z"/>
<path transform="translate(7638,0)" d="M135 0V1490H440V253H1083V0Z"/>
<path transform="translate(8796,0)" d="M789 -20Q592 -20 434.5 70.0Q277 160 185.5 331.0Q94 502 94 744Q94 987 185.5 1158.5Q277 1330 434.5 1420.0Q592 1510 789 1510Q987 1510 1144.0 1420.0Q1301 1330 1392.5 1158.5Q1484 987 1484 744Q1484 502 1392.5 331.0Q1301 160 1144.0 70.0Q987 -20 789 -20ZM789 251Q905 251 991.5 307.5Q1078 364 1126.0 474.5Q1174 585 1174 744Q1174 905 1126.0 1015.5Q1078 1126 991.5 1182.5Q905 1239 789 1239Q674 1239 587.0 1182.0Q500 1125 452.0 1014.5Q404 904 404 744Q404 585 452.0 475.0Q500 365 587.0 308.0Q674 251 789 251Z"/>
<path transform="translate(10374,0)" d="M786 -20Q588 -20 431.5 70.0Q275 160 184.5 331.0Q94 502 94 744Q94 987 185.0 1158.5Q276 1330 433.0 1420.0Q590 1510 786 1510Q913 1510 1022.5 1474.5Q1132 1439 1217.0 1371.0Q1302 1303 1356.0 1204.5Q1410 1106 1427 981H1118Q1108 1042 1079.5 1089.5Q1051 1137 1008.5 1170.5Q966 1204 911.0 1221.5Q856 1239 792 1239Q676 1239 588.0 1181.0Q500 1123 452.0 1012.5Q404 902 404 744Q404 583 453.0 473.0Q502 363 589.0 307.0Q676 251 791 251Q855 251 909.5 268.5Q964 286 1007.5 319.5Q1051 353 1079.5 401.0Q1108 449 1119 509H1428Q1416 406 1366.5 311.0Q1317 216 1235.0 141.0Q1153 66 1040.0 23.0Q927 -20 786 -20Z"/>
<path transform="translate(11889,0)" d="M49 0 558 1490H958L1480 0H1141L902 719Q859 858 814.5 1023.5Q770 1189 721 1385H787Q740 1188 698.5 1021.5Q657 855 616 719L386 0ZM367 346V585H1162V346Z"/>
<path transform="translate(13418,0)" d="M135 0V1490H440V253H1083V0Z"/>
<path transform="translate(16295,0)" d="M658 0H273V263H644Q788 263 885.5 314.0Q983 365 1032.0 472.0Q1081 579 1081 746Q1081 912 1031.5 1018.5Q982 1125 885.5 1176.0Q789 1227 646 1227H266V1490H664Q888 1490 1049.5 1400.5Q1211 1311 1298.0 1144.5Q1385 978 1385 746Q1385 513 1298.0 346.0Q1211 179 1048.0 89.5Q885 0 658 0ZM440 1490V0H135V1490Z"/>
<path transform="translate(17774,0)" d="M440 1490V0H135V1490Z"/>
<path transform="translate(18349,0)" d="M795 -20Q586 -20 428.5 72.5Q271 165 182.5 336.5Q94 508 94 743Q94 985 186.0 1156.5Q278 1328 435.0 1419.0Q592 1510 788 1510Q914 1510 1022.5 1473.5Q1131 1437 1215.5 1370.0Q1300 1303 1353.5 1211.5Q1407 1120 1423 1010H1113Q1097 1063 1068.5 1105.5Q1040 1148 999.5 1178.0Q959 1208 907.0 1223.5Q855 1239 793 1239Q678 1239 590.0 1181.5Q502 1124 453.0 1014.0Q404 904 404 746Q404 588 452.5 477.5Q501 367 589.0 309.0Q677 251 797 251Q905 251 982.0 290.0Q1059 329 1100.5 401.0Q1142 473 1142 571L1206 562H818V794H1438V608Q1438 412 1355.0 271.5Q1272 131 1127.0 55.5Q982 -20 795 -20Z"/>
<path transform="translate(19886,0)" d="M440 1490V0H135V1490Z"/>
<path transform="translate(20461,0)" d="M75 1237V1490H1292V1237H837V0H531V1237Z"/>
<path transform="translate(21828,0)" d="M49 0 558 1490H958L1480 0H1141L902 719Q859 858 814.5 1023.5Q770 1189 721 1385H787Q740 1188 698.5 1021.5Q657 855 616 719L386 0ZM367 346V585H1162V346Z"/>
<path transform="translate(23357,0)" d="M135 0V1490H440V253H1083V0Z"/>
<path transform="translate(26234,0)" d="M135 0V1490H716Q886 1490 1005.0 1425.5Q1124 1361 1186.5 1247.5Q1249 1134 1249 987Q1249 839 1185.5 726.5Q1122 614 1001.5 550.5Q881 487 709 487H335V733H660Q754 733 814.5 765.5Q875 798 904.5 855.0Q934 912 934 987Q934 1062 904.5 1119.0Q875 1176 814.0 1207.0Q753 1238 659 1238H440V0Z"/>
<path transform="translate(27561,0)" d="M49 0 558 1490H958L1480 0H1141L902 719Q859 858 814.5 1023.5Q770 1189 721 1385H787Q740 1188 698.5 1021.5Q657 855 616 719L386 0ZM367 346V585H1162V346Z"/>
<path transform="translate(29090,0)" d="M135 0V1490H716Q886 1490 1005.0 1430.0Q1124 1370 1186.5 1261.0Q1249 1152 1249 1005Q1249 858 1185.5 751.5Q1122 645 1001.5 588.5Q881 532 709 532H315V779H660Q754 779 814.0 804.5Q874 830 904.0 880.5Q934 931 934 1005Q934 1081 904.0 1132.5Q874 1184 813.5 1211.0Q753 1238 659 1238H440V0ZM964 0 601 678H932L1302 0Z"/>
<path transform="translate(30435,0)" d="M75 1237V1490H1292V1237H837V0H531V1237Z"/>
<path transform="translate(31802,0)" d="M135 0V1490H475L946 736Q982 678 1019.0 610.0Q1056 542 1094.5 459.0Q1133 376 1171 272H1140Q1133 355 1127.5 449.0Q1122 543 1118.0 629.0Q1114 715 1114 775V1490H1426V0H1085L657 684Q610 761 570.0 833.5Q530 906 486.5 994.0Q443 1082 383 1203H422Q428 1095 434.0 996.0Q440 897 443.5 816.5Q447 736 447 685V0Z"/>
<path transform="translate(33363,0)" d="M135 0V1490H1132V1237H440V877H1079V628H440V253H1134V0Z"/>
<path transform="translate(34607,0)" d="M135 0V1490H716Q886 1490 1005.0 1430.0Q1124 1370 1186.5 1261.0Q1249 1152 1249 1005Q1249 858 1185.5 751.5Q1122 645 1001.5 588.5Q881 532 709 532H315V779H660Q754 779 814.0 804.5Q874 830 904.0 880.5Q934 931 934 1005Q934 1081 904.0 1132.5Q874 1184 813.5 1211.0Q753 1238 659 1238H440V0ZM964 0 601 678H932L1302 0Z"/>
</g>
</svg>