<svg xmlns="http://www.w3.org/2000/svg" viewBox="0 0 161 182" width="161" height="182">
<g fill="#0a1628" transform="translate(18.00,156.00) scale(0.07500,-0.07500)">
<path transform="translate(0,0)" d="M867 597 843 555 1120 1363Q1127 1386 1134.5 1393.0Q1142 1400 1155 1400H1551Q1556 1400 1558.5 1398.0Q1561 1396 1561 1393Q1561 1389 1558.0 1387.5Q1555 1386 1548 1384L1478 1372Q1458 1369 1448.5 1353.5Q1439 1338 1441 1313L1529 79Q1531 50 1538.0 41.0Q1545 32 1568 27L1636 16Q1643 15 1646.0 13.5Q1649 12 1649 7Q1649 5 1646.5 2.5Q1644 0 1639 0H1063Q1058 0 1055.0 2.5Q1052 5 1052 7Q1052 12 1055.5 13.5Q1059 15 1066 16L1133 27Q1157 32 1166.0 42.5Q1175 53 1173 80L1090 1246L1109 1266L722 105Q716 86 710.5 81.0Q705 76 700 76Q697 76 693.5 78.5Q690 81 686.5 87.5Q683 94 679 105L248 1244L264 1275L180 165Q177 117 213.5 80.5Q250 44 310 27L361 16Q367 14 369.0 12.5Q371 11 371 7Q371 5 369.0 2.5Q367 0 363 0H-13Q-18 0 -20.0 2.5Q-22 5 -22 7Q-22 12 -18.5 13.5Q-15 15 -11 16L28 26Q79 42 116.0 78.5Q153 115 158 168L237 1210Q244 1288 236.0 1327.5Q228 1367 200 1372L136 1382Q127 1384 122.5 1386.0Q118 1388 118 1392Q118 1400 132 1400H539Q549 1400 556.5 1394.0Q564 1388 571 1371Z"/>
</g>
<rect x="30.5" y="165.0" width="100.3" height="9" rx="4.5" fill="#c9a14d"/>
</svg>